<?xml version="1.0" encoding="UTF-8"?>
<svg version="1.1" xmlns="http://www.w3.org/2000/svg" width="512" height="512">
<path d="M0 0 C1.01790619 0.00215515 2.03581238 0.0043103 3.08456421 0.00653076 C17.69363523 0.05620146 32.02575853 0.30709809 46.375 3.3125 C47.34985352 3.51117676 48.32470703 3.70985352 49.32910156 3.91455078 C97.7109774 14.03517194 141.69928269 35.9516877 177.375 70.3125 C178.3640332 71.26068604 178.3640332 71.26068604 179.37304688 72.22802734 C188.86130305 81.37247479 197.6012044 90.66984009 205.375 101.3125 C206.23306152 102.46355017 207.09113451 103.61459177 207.94921875 104.765625 C213.98736829 112.95680614 219.34595521 121.47054105 224.375 130.3125 C224.73948242 130.94430176 225.10396484 131.57610352 225.47949219 132.22705078 C247.08534998 169.97532572 256.85198095 212.74189997 256.6875 255.9375 C256.68534485 256.95540619 256.6831897 257.97331238 256.68096924 259.02206421 C256.63129854 273.63113523 256.38040191 287.96325853 253.375 302.3125 C253.07698486 303.77478027 253.07698486 303.77478027 252.77294922 305.26660156 C242.65232806 353.6484774 220.7358123 397.63678269 186.375 433.3125 C185.74287598 433.97185547 185.11075195 434.63121094 184.45947266 435.31054688 C175.31502521 444.79880305 166.01765991 453.5387044 155.375 461.3125 C154.22394983 462.17056152 153.07290823 463.02863451 151.921875 463.88671875 C143.73224019 469.92427396 135.22961724 475.30707302 126.375 480.3125 C125.66778809 480.7146875 124.96057617 481.116875 124.23193359 481.53125 C101.09654164 494.5566741 75.92537591 503.30551461 49.9375 508.625 C49.21860596 508.77235596 48.49971191 508.91971191 47.7590332 509.0715332 C33.08339502 511.86090125 18.55831162 512.66142619 3.64770508 512.62817383 C0.70811513 512.6250221 -2.2304558 512.64854926 -5.16992188 512.67382812 C-18.54306192 512.71848737 -31.43916711 511.51301542 -44.625 509.3125 C-46.33055054 509.03031616 -46.33055054 509.03031616 -48.07055664 508.74243164 C-91.33802759 500.97044532 -132.38793216 480.98345309 -165.625 452.3125 C-166.37007813 451.67828125 -167.11515625 451.0440625 -167.8828125 450.390625 C-181.38779833 438.57948485 -194.05918743 425.82889772 -204.625 411.3125 C-205.48149066 410.16255169 -206.33826433 409.01281411 -207.1953125 407.86328125 C-213.23534209 399.67315742 -218.61867614 391.16870382 -223.625 382.3125 C-224.0271875 381.60528809 -224.429375 380.89807617 -224.84375 380.16943359 C-237.8691741 357.03404164 -246.61801461 331.86287591 -251.9375 305.875 C-252.08485596 305.15610596 -252.23221191 304.43721191 -252.3840332 303.6965332 C-255.35789088 288.05024391 -255.99800362 272.57681954 -255.9375 256.6875 C-255.93534485 255.66959381 -255.9331897 254.65168762 -255.93096924 253.60293579 C-255.88129854 238.99386477 -255.63040191 224.66174147 -252.625 210.3125 C-252.42632324 209.33764648 -252.22764648 208.36279297 -252.02294922 207.35839844 C-241.90232806 158.9765226 -219.9858123 114.98821731 -185.625 79.3125 C-184.99287598 78.65314453 -184.36075195 77.99378906 -183.70947266 77.31445312 C-174.56502521 67.82619695 -165.26765991 59.0862956 -154.625 51.3125 C-153.47394983 50.45443848 -152.32290823 49.59636549 -151.171875 48.73828125 C-142.98224019 42.70072604 -134.47961724 37.31792698 -125.625 32.3125 C-124.91778809 31.9103125 -124.21057617 31.508125 -123.48193359 31.09375 C-100.34654164 18.0683259 -75.17537591 9.31948539 -49.1875 4 C-48.46860596 3.85264404 -47.74971191 3.70528809 -47.0090332 3.5534668 C-31.36274391 0.57960912 -15.88931954 -0.06050362 0 0 Z M-26.48535156 132.65527344 C-27.66146795 133.82596321 -28.83843217 134.99580175 -30.01617432 136.16485596 C-33.19880312 139.32931293 -36.36872498 142.50621556 -39.53591633 145.68611431 C-42.85923209 149.01958953 -46.19233339 152.34325752 -49.52386475 155.66851807 C-55.11589789 161.2532834 -60.69946595 166.84640792 -66.27832031 172.44433594 C-72.71925269 178.90703526 -79.17446811 185.3551987 -85.63729119 191.7960012 C-91.19560487 197.33613628 -96.74605213 202.88406187 -102.29005408 208.43851876 C-105.59695249 211.75163853 -108.906459 215.06203153 -112.22309113 218.36540985 C-115.34142799 221.47215313 -118.44974316 224.58859354 -121.5507431 227.71263885 C-122.68728163 228.85444569 -123.82719938 229.99290082 -124.97079468 231.12763977 C-134.5033116 240.39826448 -134.5033116 240.39826448 -139.19140625 252.5859375 C-139.18062869 261.14332215 -137.73692748 267.60174813 -132.015625 274.15625 C-126.5400099 279.28022009 -120.83309749 281.49365891 -113.36328125 281.3828125 C-112.47294189 281.37266113 -111.58260254 281.36250977 -110.6652832 281.35205078 C-109.99198975 281.33899902 -109.31869629 281.32594727 -108.625 281.3125 C-108.63388245 282.43034882 -108.64276489 283.54819763 -108.6519165 284.69992065 C-108.73319719 295.26294035 -108.79305877 305.82589614 -108.83224869 316.38915825 C-108.85307436 321.81914231 -108.88130013 327.24887279 -108.92675781 332.67871094 C-108.97039476 337.92422077 -108.99417482 343.16948753 -109.00450897 348.41516495 C-109.01186837 350.41093901 -109.02623927 352.40670059 -109.04792023 354.40237045 C-109.30328057 372.48284889 -109.30328057 372.48284889 -100.40234375 387.77734375 C-94.41391792 392.94976431 -88.11654033 395.41659049 -80.27734375 395.47363281 C-78.67548218 395.48804413 -78.67548218 395.48804413 -77.04125977 395.50274658 C-75.89326904 395.50699646 -74.74527832 395.51124634 -73.5625 395.515625 C-72.37906006 395.52132507 -71.19562012 395.52702515 -69.97631836 395.53289795 C-67.47478122 395.54234036 -64.97323168 395.54887891 -62.47167969 395.55273438 C-58.63975508 395.56246254 -54.80836176 395.59350306 -50.9765625 395.625 C-48.54687819 395.63152796 -46.11719004 395.63677925 -43.6875 395.640625 C-42.53950928 395.6529718 -41.39151855 395.6653186 -40.20874023 395.67803955 C-38.60687866 395.6735379 -38.60687866 395.6735379 -36.97265625 395.66894531 C-36.03429932 395.67259094 -35.09594238 395.67623657 -34.12915039 395.67999268 C-31.13683539 395.24086017 -29.78991271 394.39843422 -27.625 392.3125 C-26.47693511 388.86830532 -26.4863734 386.18329676 -26.46728516 382.54956055 C-26.46220444 381.86625671 -26.45712372 381.18295288 -26.45188904 380.47894287 C-26.44119533 378.99590521 -26.43257123 377.5128515 -26.42576981 376.02979088 C-26.41396431 373.67967224 -26.39450668 371.32973599 -26.37265015 368.97969055 C-26.31109412 362.29812723 -26.25703036 355.61658258 -26.22363281 348.93481445 C-26.20264809 344.84632525 -26.16731399 340.75816894 -26.12287521 336.66987038 C-26.10874442 335.11465189 -26.09999938 333.55937451 -26.09682083 332.00409508 C-26.0918933 329.82358525 -26.06868947 327.64395341 -26.04150391 325.46362305 C-26.03341705 324.22468796 -26.0253302 322.98575287 -26.01699829 321.70927429 C-25.47354716 317.000119 -24.09232362 313.5680757 -20.46289062 310.46240234 C-16.70310659 308.93895234 -13.21174395 308.88248263 -9.21875 308.9140625 C-8.41642944 308.91119232 -7.61410889 308.90832214 -6.78747559 308.90536499 C-5.09642834 308.90332962 -3.40535727 308.9088226 -1.71435547 308.92138672 C0.86674898 308.93744865 3.44628772 308.92152096 6.02734375 308.90234375 C7.67448261 308.90432628 9.32162049 308.90817015 10.96875 308.9140625 C11.73658813 308.90798981 12.50442627 308.90191711 13.29553223 308.8956604 C17.82323879 308.95477821 20.97796089 309.2092879 24.375 312.3125 C28.23648589 319.16823125 27.78805883 326.51207808 27.75512505 334.18498993 C27.74594381 336.5225495 27.75631465 338.85931917 27.77174377 341.19683838 C27.81166896 347.83645577 27.81303845 354.47600508 27.81079102 361.11572266 C27.81073994 365.19052439 27.8298814 369.26489354 27.86012459 373.33957672 C27.87094297 375.63981594 27.85883005 377.9392284 27.84629822 380.23944092 C27.85520052 381.64889343 27.86527417 383.0583392 27.87670898 384.46777344 C27.87654282 385.69606873 27.87637665 386.92436401 27.87620544 388.18988037 C28.46798775 391.89463419 29.43434572 393.06082949 32.375 395.3125 C34.52035736 396.00156648 34.52035736 396.00156648 36.84765625 396.0546875 C37.72824707 396.10979492 38.60883789 396.16490234 39.51611328 396.22167969 C44.61745038 396.38373754 49.70847168 396.45993613 54.8125 396.4375 C55.9454248 396.43339111 57.07834961 396.42928223 58.24560547 396.42504883 C65.166779 396.37964968 72.08421092 396.28399012 79 396 C80.10686157 395.96640381 80.10686157 395.96640381 81.23608398 395.93212891 C90.44668803 395.46229775 96.49644177 392.08140899 103.16796875 385.7890625 C109.67266619 378.48998609 110.53070144 370.10886644 110.48852539 360.66674805 C110.48874443 359.37818153 110.48874443 359.37818153 110.4889679 358.06358337 C110.48827312 355.23376918 110.48050111 352.4040214 110.47265625 349.57421875 C110.47079052 347.60838354 110.46936735 345.64254787 110.46836853 343.67671204 C110.46455553 338.50970164 110.45473562 333.34271948 110.44366455 328.17572021 C110.43342427 322.90035382 110.4288653 317.62498285 110.42382812 312.34960938 C110.41311227 302.00389386 110.39605045 291.65819928 110.375 281.3125 C111.063022 281.32192627 111.75104401 281.33135254 112.45991516 281.34106445 C113.36171005 281.348396 114.26350494 281.35572754 115.19262695 281.36328125 C116.53403496 281.37742065 116.53403496 281.37742065 117.90254211 281.3918457 C123.64870641 281.20744076 128.3393772 278.17880113 132.48828125 274.375 C137.58661383 268.80166749 139.66686677 264.275028 139.8125 256.625 C139.85246094 255.48675781 139.89242188 254.34851563 139.93359375 253.17578125 C138.33324496 242.10763469 130.73257481 234.94774346 123.11816406 227.40869141 C121.96844757 226.25218753 120.81979479 225.09462536 119.67211914 223.93609619 C116.57191917 220.81323258 113.4562699 217.70623584 110.3367815 214.60265398 C107.06365821 211.34225384 103.80282437 208.06959827 100.53997803 204.79891968 C95.06132454 199.31118957 89.57225855 193.83404077 84.07714844 188.36279297 C77.7357914 182.04865673 71.41266561 175.71669193 65.09868073 169.37519324 C59.66311163 163.91689371 54.21780865 158.46844888 48.76433349 153.02803934 C45.51331053 149.78478745 42.26570296 146.53830914 39.0268631 143.28288651 C35.98143435 140.22295462 32.9239187 137.17562626 29.85687256 134.13736725 C28.73719656 133.02427022 27.62169348 131.90695637 26.51085663 130.78503799 C19.66463183 123.87687051 13.62420331 118.21953485 3.71484375 116.78125 C2.59207031 116.7915625 1.46929687 116.801875 0.3125 116.8125 C-0.81285156 116.8021875 -1.93820313 116.791875 -3.09765625 116.78125 C-13.33214011 118.32265621 -19.5365484 125.65223664 -26.48535156 132.65527344 Z " fill="#000000" transform="translate(255.625,-0.3125)"/>
</svg>
